<svg xmlns="http://www.w3.org/2000/svg" xmlns:xlink="http://www.w3.org/1999/xlink" viewBox="0 0 146.27 130.86"><defs><style>.cls-1,.cls-10,.cls-11,.cls-2,.cls-3,.cls-4,.cls-5,.cls-6,.cls-7,.cls-8,.cls-9{fill:none;stroke-miterlimit:10;}.cls-1{stroke-width:0.41px;stroke:url(#Gradiente_sem_nome);}.cls-2{stroke-width:0.51px;stroke:url(#Gradiente_sem_nome_12);}.cls-3{stroke-width:0.61px;stroke:url(#Gradiente_sem_nome_11);}.cls-4{stroke-width:0.71px;stroke:url(#Gradiente_sem_nome_10);}.cls-5{stroke-width:0.81px;stroke:url(#Gradiente_sem_nome_9);}.cls-6{stroke-width:0.91px;stroke:url(#Gradiente_sem_nome_8);}.cls-7{stroke-width:1.01px;stroke:url(#Gradiente_sem_nome_6);}.cls-8{stroke-width:1.11px;stroke:url(#Gradiente_sem_nome_5);}.cls-9{stroke-width:1.21px;stroke:url(#Gradiente_sem_nome_4);}.cls-10{stroke-width:1.31px;stroke:url(#Gradiente_sem_nome_3);}.cls-11{stroke-width:1.41px;stroke:url(#Gradiente_sem_nome_7);}</style><linearGradient id="Gradiente_sem_nome" x1="-791.21" y1="851.43" x2="-764.56" y2="851.43" gradientTransform="matrix(-0.92, -0.4, 0.4, -0.92, -984.78, 538.96)" gradientUnits="userSpaceOnUse"><stop offset="0" stop-color="#fff"/><stop offset="1"/></linearGradient><linearGradient id="Gradiente_sem_nome_12" x1="-825.61" y1="860.31" x2="-791.67" y2="860.31" gradientTransform="translate(-975.62 584.93) rotate(-159.35) scale(0.99)" gradientUnits="userSpaceOnUse"><stop offset="0" stop-color="#fff"/><stop offset="0.48" stop-color="#7f7f7f"/><stop offset="0.84" stop-color="#242424"/><stop offset="1"/></linearGradient><linearGradient id="Gradiente_sem_nome_11" x1="-861.59" y1="866.16" x2="-820.07" y2="866.16" gradientTransform="translate(-966.45 630.91) rotate(-162.46) scale(0.98)" gradientUnits="userSpaceOnUse"><stop offset="0" stop-color="#fff"/><stop offset="0.06" stop-color="#eee"/><stop offset="0.41" stop-color="#898989"/><stop offset="0.7" stop-color="#3f3f3f"/><stop offset="0.9" stop-color="#121212"/><stop offset="1"/></linearGradient><linearGradient id="Gradiente_sem_nome_10" x1="-898.55" y1="868.64" x2="-849.33" y2="868.64" gradientTransform="translate(-957.28 676.88) rotate(-165.64) scale(0.97)" gradientUnits="userSpaceOnUse"><stop offset="0" stop-color="#fff"/><stop offset="0.02" stop-color="#f9f9f9"/><stop offset="0.3" stop-color="#a2a2a2"/><stop offset="0.55" stop-color="#5c5c5c"/><stop offset="0.76" stop-color="#2a2a2a"/><stop offset="0.91" stop-color="#0c0c0c"/><stop offset="1"/></linearGradient><linearGradient id="Gradiente_sem_nome_9" x1="-935.84" y1="867.54" x2="-878.93" y2="867.54" gradientTransform="translate(-948.12 722.85) rotate(-168.85) scale(0.96)" gradientUnits="userSpaceOnUse"><stop offset="0" stop-color="#fff"/><stop offset="0.2" stop-color="#bdbdbd"/><stop offset="0.41" stop-color="#7b7b7b"/><stop offset="0.61" stop-color="#464646"/><stop offset="0.78" stop-color="#202020"/><stop offset="0.91" stop-color="#090909"/><stop offset="1"/></linearGradient><linearGradient id="Gradiente_sem_nome_8" x1="-972.75" y1="862.78" x2="-908.3" y2="862.78" gradientTransform="matrix(-0.95, -0.13, 0.13, -0.95, -938.95, 768.83)" gradientUnits="userSpaceOnUse"><stop offset="0" stop-color="#fff"/><stop offset="0.09" stop-color="#dcdcdc"/><stop offset="0.28" stop-color="#9a9a9a"/><stop offset="0.47" stop-color="#636363"/><stop offset="0.63" stop-color="#383838"/><stop offset="0.78" stop-color="#191919"/><stop offset="0.91" stop-color="#070707"/><stop offset="1"/></linearGradient><linearGradient id="Gradiente_sem_nome_6" x1="-1008.58" y1="854.42" x2="-936.9" y2="854.42" gradientTransform="translate(-929.79 814.8) rotate(-175.32) scale(0.96)" gradientUnits="userSpaceOnUse"><stop offset="0" stop-color="#fff"/><stop offset="0.01" stop-color="#fcfcfc"/><stop offset="0.17" stop-color="#bbb"/><stop offset="0.34" stop-color="#828282"/><stop offset="0.49" stop-color="#535353"/><stop offset="0.64" stop-color="#2f2f2f"/><stop offset="0.78" stop-color="#151515"/><stop offset="0.9" stop-color="#050505"/><stop offset="1"/></linearGradient><linearGradient id="Gradiente_sem_nome_5" x1="-1042.66" y1="842.65" x2="-964.17" y2="842.65" gradientTransform="translate(-920.62 860.77) rotate(-178.53) scale(0.97)" gradientUnits="userSpaceOnUse"><stop offset="0" stop-color="#fff"/><stop offset="0.08" stop-color="#dbdbdb"/><stop offset="0.22" stop-color="#a2a2a2"/><stop offset="0.36" stop-color="#707070"/><stop offset="0.5" stop-color="#484848"/><stop offset="0.64" stop-color="#292929"/><stop offset="0.77" stop-color="#121212"/><stop offset="0.89" stop-color="#050505"/><stop offset="1"/></linearGradient><linearGradient id="Gradiente_sem_nome_4" x1="-1074.41" y1="827.81" x2="-989.64" y2="827.81" gradientTransform="translate(-911.45 906.75) rotate(178.29) scale(0.98)" gradientUnits="userSpaceOnUse"><stop offset="0" stop-color="#fff"/><stop offset="0" stop-color="#fefefe"/><stop offset="0.12" stop-color="#c3c3c3"/><stop offset="0.25" stop-color="#8f8f8f"/><stop offset="0.37" stop-color="#636363"/><stop offset="0.5" stop-color="#404040"/><stop offset="0.62" stop-color="#242424"/><stop offset="0.75" stop-color="#101010"/><stop offset="0.87" stop-color="#040404"/><stop offset="1"/></linearGradient><linearGradient id="Gradiente_sem_nome_3" x1="-1103.35" y1="810.29" x2="-1012.93" y2="810.29" gradientTransform="translate(-902.29 952.72) rotate(175.18) scale(0.99)" gradientUnits="userSpaceOnUse"><stop offset="0" stop-color="#fff"/><stop offset="0.05" stop-color="#e5e5e5"/><stop offset="0.15" stop-color="#b0b0b0"/><stop offset="0.26" stop-color="#818181"/><stop offset="0.37" stop-color="#595959"/><stop offset="0.48" stop-color="#393939"/><stop offset="0.6" stop-color="#202020"/><stop offset="0.72" stop-color="#0e0e0e"/><stop offset="0.85" stop-color="#030303"/><stop offset="1"/></linearGradient><linearGradient id="Gradiente_sem_nome_7" x1="-1129.15" y1="790.59" x2="-1033.76" y2="790.59" gradientTransform="translate(-893.12 998.69) rotate(172.14)" gradientUnits="userSpaceOnUse"><stop offset="0" stop-color="#fff"/><stop offset="0.08" stop-color="#d1d1d1"/><stop offset="0.17" stop-color="#a0a0a0"/><stop offset="0.26" stop-color="#757575"/><stop offset="0.36" stop-color="#515151"/><stop offset="0.46" stop-color="#343434"/><stop offset="0.57" stop-color="#1d1d1d"/><stop offset="0.69" stop-color="#0d0d0d"/><stop offset="0.82" stop-color="#030303"/><stop offset="1"/></linearGradient></defs><g id="Camada_3" data-name="Camada 3"><path class="cls-1" d="M70.32,80.27c4.09.74,5.08,7.54,6.6,7.24,1.36-.27-.46-5.56,2.73-11C81.67,73,84,72.41,84,69.85c0-3.13-3.49-5.94-4.7-5.46s.31,3.9-1.37,5-6.6-1-6.7-3.25,4.54-3.16,4.41-5.4c-.11-1.91-3.6-4-5.86-3.23-3,1-1.36,6.35-5.37,9-3.15,2.09-6.52.34-7.61,2.13s2.25,3.63,3.31,9c.7,3.58-.26,5.42.93,6C63.09,84.71,66.51,79.58,70.32,80.27Z"/><path class="cls-2" d="M86.4,66.71C85.79,63,81.05,60.22,79.69,61s1.14,4.59-.66,6.12c-2,1.67-8.11-.11-8.67-2.75s4.82-4.51,4.22-7.16c-.5-2.25-5.1-4.14-7.65-2.87-3.43,1.72-.39,7.78-4.67,11.6-3.36,3-7.75,1.49-8.7,3.79S57,73.67,59.29,79.88c1.55,4.15.76,6.5,2.31,7,2.65.94,5.74-5.74,10.44-5.55,5,.21,7.57,8.13,9.33,7.52,1.58-.55-1.64-6.53,1.11-13.55C84.23,70.89,86.9,69.75,86.4,66.71Z"/><path class="cls-3" d="M88.79,63.57c-1.23-4.32-7.21-7-8.72-6s2,5.28.05,7.29c-2.1,2.19-9.62.79-10.64-2.26s5.1-5.86,4-8.91c-.9-2.6-6.6-4.3-9.45-2.5-3.83,2.41.59,9.19-4,14.18-3.58,3.93-9,2.64-9.79,5.47s4.57,4.25,8.16,11.3c2.39,4.71,1.77,7.56,3.67,8,3.28.8,6-7.41,11.62-7.72,6-.34,10.06,8.71,12.06,7.79,1.79-.83-2.82-7.51-.51-16.09C86.78,68.75,89.79,67.09,88.79,63.57Z"/><path class="cls-4" d="M91.18,60.42c-1.85-4.9-9.07-7.57-10.72-6.21s2.79,6,.74,8.45C79,65.38,70.08,64.35,68.6,60.9S74,53.69,72.45,50.23c-1.3-2.94-8.09-4.46-11.24-2.14C57,51.2,62.77,58.71,58,64.87c-3.8,4.84-10.2,3.79-10.89,7.13s5.73,4.57,10.58,12.46c3.24,5.27,2.79,8.63,5,9,3.89.67,6.31-9.09,12.79-9.9,7-.87,12.55,9.3,14.79,8.07,2-1.1-4-8.48-2.13-18.63C89.33,66.6,92.68,64.44,91.18,60.42Z"/><path class="cls-5" d="M93.56,57.28c-2.45-5.5-10.92-8.12-12.72-6.47s3.62,6.65,1.45,9.62c-2.36,3.24-12.63,2.6-14.56-1.26s5.65-8.57,3.65-12.43c-1.69-3.28-9.59-4.61-13-1.78-4.63,3.8,2.54,12-2.56,19.38-4,5.76-11.43,4.93-12,8.79s6.88,4.89,13,13.62c4.08,5.83,3.8,9.7,6.42,10,4.5.53,6.59-10.76,14-12.07,7.91-1.41,15,9.88,17.51,8.34C97,91.65,89.54,83.57,91,71.86,91.88,64.45,95.57,61.78,93.56,57.28Z"/><path class="cls-6" d="M96,54.14c-3.07-6.1-12.78-8.67-14.72-6.72s4.45,7.34,2.15,10.78c-2.5,3.76-14.14,3.5-16.53-.77s5.93-9.92,3.47-14.18c-2.09-3.63-11.09-4.77-14.83-1.42-5,4.5,3.51,13.48-1.86,22C49.41,70.48,41,69.88,40.57,74.27S48.61,79.47,56,89c4.93,6.39,4.82,10.77,7.8,11,5.12.39,6.87-12.43,15.14-14.25,8.87-2,17.52,10.47,20.24,8.62,2.45-1.66-6.36-10.44-5.36-23.71C94.43,62.3,98.46,59.12,96,54.14Z"/><path class="cls-7" d="M98.34,51c-3.69-6.69-14.64-9.22-16.73-7s5.28,8,2.86,11.95c-2.64,4.28-15.65,4.4-18.5-.27s6.21-11.27,3.28-15.94c-2.48-4-12.58-4.93-16.62-1.06-5.43,5.2,4.49,14.91-1.16,24.57C47,70.87,37.6,70.5,37.32,75.4s9.2,5.51,17.85,15.93c5.77,7,5.83,11.84,9.16,12,5.74.26,7.16-14.11,16.32-16.43,9.83-2.48,20,11.06,23,8.91,2.66-1.94-7.54-11.42-7-26.26C97,60.15,101.35,56.47,98.34,51Z"/><path class="cls-8" d="M100.73,47.86c-4.3-7.29-16.5-9.77-18.74-7.23s6.11,8.71,3.56,13.11c-2.77,4.8-17.15,5.31-20.46.22s6.49-12.62,3.09-17.69C65.3,32,54.1,31.19,49.77,35.57c-5.83,5.89,5.46,16.34-.45,27.17-4.66,8.51-15.1,8.37-15.25,13.79s10.36,5.83,20.27,17.09c6.62,7.51,6.85,12.91,10.54,13,6.35.12,7.44-15.78,17.49-18.6,10.79-3,22.5,11.64,25.71,9.18,2.87-2.22-8.73-12.4-8.61-28.8C99.54,58,104.24,53.81,100.73,47.86Z"/><path class="cls-9" d="M103.12,44.71c-4.92-7.87-18.37-10.3-20.74-7.48s6.93,9.4,4.26,14.29c-2.9,5.31-18.66,6.2-22.43.71s6.77-14,2.91-19.45c-3.28-4.66-15.58-5.24-20.21-.34-6.24,6.59,6.44,17.77.25,29.76-4.87,9.44-16.33,9.52-16.33,15.46s11.51,6.15,22.69,18.25c7.46,8.07,7.85,14,11.91,14,7,0,7.72-17.46,18.67-20.78,11.73-3.56,25,12.23,28.43,9.46,3.09-2.49-9.91-13.37-10.23-31.34C102.09,55.85,107.13,51.15,103.12,44.71Z"/><path class="cls-10" d="M105.5,41.57C100,33.1,85.28,30.72,82.76,33.84s7.76,10.08,5,15.45c-3,5.83-20.17,7.1-24.4,1.21s7-15.33,2.72-21.21c-3.67-5-17.07-5.4-22,0-6.63,7.29,7.42,19.2,1,32.36C39.92,72,27.45,72.34,27.58,78.8s12.67,6.46,25.11,19.4c8.3,8.64,8.87,15,13.29,15,7.58-.15,8-19.13,19.84-23C98.51,86.1,113.29,103,117,99.94c3.31-2.77-11.09-14.35-11.85-33.88C104.64,53.7,110,48.5,105.5,41.57Z"/><path class="cls-11" d="M87.54,91.31c13.65-4.64,30,13.4,33.89,10C125,98.27,109.16,86,108,64.9c-.77-13.35,5-19.06-.07-26.47-6.14-9.06-22.08-11.4-24.74-8s8.59,10.78,5.67,16.62c-3.18,6.35-21.68,8-26.36,1.7s7.32-16.67,2.52-23c-4.07-5.34-18.57-5.56-23.8.38-7,8,8.4,20.63,1.66,35C37.55,72.41,24.07,73,24.33,79.93s13.83,6.77,27.54,20.56c9.14,9.2,9.88,16.12,14.65,16C74.72,116.16,74.81,95.63,87.54,91.31Z"/></g></svg>