<svg xmlns="http://www.w3.org/2000/svg" xmlns:xlink="http://www.w3.org/1999/xlink" viewBox="0 0 146.27 130.86"><defs><style>.cls-1,.cls-10,.cls-11,.cls-2,.cls-3,.cls-4,.cls-5,.cls-6,.cls-7,.cls-8,.cls-9{fill:none;stroke-miterlimit:10;}.cls-1{stroke-width:0.48px;stroke:url(#Gradiente_sem_nome);}.cls-2{stroke-width:0.59px;stroke:url(#Gradiente_sem_nome_12);}.cls-3{stroke-width:0.71px;stroke:url(#Gradiente_sem_nome_11);}.cls-4{stroke-width:0.82px;stroke:url(#Gradiente_sem_nome_10);}.cls-5{stroke-width:0.94px;stroke:url(#Gradiente_sem_nome_9);}.cls-6{stroke-width:1.06px;stroke:url(#Gradiente_sem_nome_8);}.cls-7{stroke-width:1.17px;stroke:url(#Gradiente_sem_nome_6);}.cls-8{stroke-width:1.29px;stroke:url(#Gradiente_sem_nome_5);}.cls-9{stroke-width:1.41px;stroke:url(#Gradiente_sem_nome_4);}.cls-10{stroke-width:1.52px;stroke:url(#Gradiente_sem_nome_3);}.cls-11{stroke-width:1.64px;stroke:url(#Gradiente_sem_nome_7);}</style><linearGradient id="Gradiente_sem_nome" x1="-162.7" y1="-281.24" x2="-131.74" y2="-281.24" gradientTransform="translate(52.51 380.94) rotate(31.56)" gradientUnits="userSpaceOnUse"><stop offset="0" stop-color="#fff"/><stop offset="1"/></linearGradient><linearGradient id="Gradiente_sem_nome_12" x1="-131.26" y1="-261.14" x2="-91.83" y2="-261.14" gradientTransform="translate(47.26 342.84) rotate(28.51) scale(0.99)" gradientUnits="userSpaceOnUse"><stop offset="0" stop-color="#fff"/><stop offset="0.48" stop-color="#7f7f7f"/><stop offset="0.84" stop-color="#242424"/><stop offset="1"/></linearGradient><linearGradient id="Gradiente_sem_nome_11" x1="-101.39" y1="-236.56" x2="-53.16" y2="-236.56" gradientTransform="matrix(0.88, 0.42, -0.42, 0.88, 42, 304.75)" gradientUnits="userSpaceOnUse"><stop offset="0" stop-color="#fff"/><stop offset="0.06" stop-color="#eee"/><stop offset="0.41" stop-color="#898989"/><stop offset="0.7" stop-color="#3f3f3f"/><stop offset="0.9" stop-color="#121212"/><stop offset="1"/></linearGradient><linearGradient id="Gradiente_sem_nome_10" x1="-73.74" y1="-207.66" x2="-16.57" y2="-207.66" gradientTransform="matrix(0.9, 0.37, -0.37, 0.9, 36.75, 266.66)" gradientUnits="userSpaceOnUse"><stop offset="0" stop-color="#fff"/><stop offset="0.02" stop-color="#f9f9f9"/><stop offset="0.3" stop-color="#a2a2a2"/><stop offset="0.55" stop-color="#5c5c5c"/><stop offset="0.76" stop-color="#2a2a2a"/><stop offset="0.91" stop-color="#0c0c0c"/><stop offset="1"/></linearGradient><linearGradient id="Gradiente_sem_nome_9" x1="-48.96" y1="-174.8" x2="17.14" y2="-174.8" gradientTransform="matrix(0.91, 0.31, -0.31, 0.91, 31.5, 228.56)" gradientUnits="userSpaceOnUse"><stop offset="0" stop-color="#fff"/><stop offset="0.2" stop-color="#bdbdbd"/><stop offset="0.41" stop-color="#7b7b7b"/><stop offset="0.61" stop-color="#464646"/><stop offset="0.78" stop-color="#202020"/><stop offset="0.91" stop-color="#090909"/><stop offset="1"/></linearGradient><linearGradient id="Gradiente_sem_nome_8" x1="-27.61" y1="-138.49" x2="47.26" y2="-138.49" gradientTransform="translate(26.25 190.47) rotate(15.78) scale(0.96)" gradientUnits="userSpaceOnUse"><stop offset="0" stop-color="#fff"/><stop offset="0.09" stop-color="#dcdcdc"/><stop offset="0.28" stop-color="#9a9a9a"/><stop offset="0.47" stop-color="#636363"/><stop offset="0.63" stop-color="#383838"/><stop offset="0.78" stop-color="#191919"/><stop offset="0.91" stop-color="#070707"/><stop offset="1"/></linearGradient><linearGradient id="Gradiente_sem_nome_6" x1="-10.11" y1="-99.4" x2="73.16" y2="-99.4" gradientTransform="translate(21 152.38) rotate(12.54) scale(0.96)" gradientUnits="userSpaceOnUse"><stop offset="0" stop-color="#fff"/><stop offset="0.01" stop-color="#fcfcfc"/><stop offset="0.17" stop-color="#bbb"/><stop offset="0.34" stop-color="#828282"/><stop offset="0.49" stop-color="#535353"/><stop offset="0.64" stop-color="#2f2f2f"/><stop offset="0.78" stop-color="#151515"/><stop offset="0.9" stop-color="#050505"/><stop offset="1"/></linearGradient><linearGradient id="Gradiente_sem_nome_5" x1="3.22" y1="-58.28" x2="94.41" y2="-58.28" gradientTransform="translate(15.75 114.28) rotate(9.33) scale(0.97)" gradientUnits="userSpaceOnUse"><stop offset="0" stop-color="#fff"/><stop offset="0.08" stop-color="#dbdbdb"/><stop offset="0.22" stop-color="#a2a2a2"/><stop offset="0.36" stop-color="#707070"/><stop offset="0.5" stop-color="#484848"/><stop offset="0.64" stop-color="#292929"/><stop offset="0.77" stop-color="#121212"/><stop offset="0.89" stop-color="#050505"/><stop offset="1"/></linearGradient><linearGradient id="Gradiente_sem_nome_4" x1="12.27" y1="-15.95" x2="110.73" y2="-15.95" gradientTransform="translate(10.5 76.19) rotate(6.16) scale(0.98)" gradientUnits="userSpaceOnUse"><stop offset="0" stop-color="#fff"/><stop offset="0" stop-color="#fefefe"/><stop offset="0.12" stop-color="#c3c3c3"/><stop offset="0.25" stop-color="#8f8f8f"/><stop offset="0.37" stop-color="#636363"/><stop offset="0.5" stop-color="#404040"/><stop offset="0.62" stop-color="#242424"/><stop offset="0.75" stop-color="#101010"/><stop offset="0.87" stop-color="#040404"/><stop offset="1"/></linearGradient><linearGradient id="Gradiente_sem_nome_3" x1="17.04" y1="26.77" x2="122.08" y2="26.77" gradientTransform="translate(5.25 38.09) rotate(3.04) scale(0.99)" gradientUnits="userSpaceOnUse"><stop offset="0" stop-color="#fff"/><stop offset="0.05" stop-color="#e5e5e5"/><stop offset="0.15" stop-color="#b0b0b0"/><stop offset="0.26" stop-color="#818181"/><stop offset="0.37" stop-color="#595959"/><stop offset="0.48" stop-color="#393939"/><stop offset="0.6" stop-color="#202020"/><stop offset="0.72" stop-color="#0e0e0e"/><stop offset="0.85" stop-color="#030303"/><stop offset="1"/></linearGradient><linearGradient id="Gradiente_sem_nome_7" x1="17.73" y1="69.1" x2="128.54" y2="69.1" gradientUnits="userSpaceOnUse"><stop offset="0" stop-color="#fff"/><stop offset="0.08" stop-color="#d1d1d1"/><stop offset="0.17" stop-color="#a0a0a0"/><stop offset="0.26" stop-color="#757575"/><stop offset="0.36" stop-color="#515151"/><stop offset="0.46" stop-color="#343434"/><stop offset="0.57" stop-color="#1d1d1d"/><stop offset="0.69" stop-color="#0d0d0d"/><stop offset="0.82" stop-color="#030303"/><stop offset="1"/></linearGradient></defs><g id="Camada_3" data-name="Camada 3"><path class="cls-1" d="M74.82,54.5C70.23,53,70.17,45,68.38,45.13c-1.61.09-.36,6.46-4.9,12.23-2.87,3.66-5.66,4-6.07,7-.5,3.6,3.08,7.39,4.55,7s.26-4.54,2.36-5.49c2.28-1,7.43,2.21,7.19,4.8s-5.72,2.92-5.93,5.52c-.18,2.21,3.51,5.16,6.23,4.64,3.65-.69,2.58-7.08,7.61-9.5,4-1.9,7.56.64,9.1-1.24s-2-4.53-2.38-10.88C85.89,55,87.3,53,86,52.1,83.85,50.54,79.1,55.91,74.82,54.5Z"/><path class="cls-2" d="M54.16,67.56c.12,4.38,5.13,8.31,6.82,7.63s-.58-5.46,1.73-6.94c2.52-1.61,9.31,1.42,9.54,4.55s-6.26,4.42-6,7.57c.22,2.67,5.21,5.57,8.35,4.51,4.22-1.43,1.69-8.88,7.22-12.6,4.35-2.93,9.15-.49,10.62-3s-3.3-5.07-5-12.59c-1.12-5,.16-7.59-1.53-8.46C83,46.74,78.4,53.93,73,53c-5.78-1-7.42-10.55-9.54-10.13-1.91.38.84,7.78-3.44,15.42C57.33,63.08,54.07,64,54.16,67.56Z"/><path class="cls-3" d="M50.92,70.79C51.64,76,58.1,80,60,79s-1.43-6.39,1.11-8.4c2.75-2.19,11.19.62,11.87,4.29s-6.79,5.94-6.06,9.62c.63,3.13,6.91,6,10.48,4.38,4.79-2.17.78-10.68,6.81-15.69C89,69.29,95,71.62,96.35,68.5s-4.57-5.62-7.58-14.3c-2-5.8-.84-9-3-9.82-3.64-1.45-8.11,7.57-14.6,7-7-.57-10.19-11.63-12.64-10.89-2.19.67,2,9.09-2,18.6C54.05,65.15,50.32,66.57,50.92,70.79Z"/><path class="cls-4" d="M47.67,74C49,80,56.9,84.19,59,82.88s-2.27-7.3.48-9.84c3-2.77,13.07-.18,14.22,4s-7.33,7.44-6.12,11.67c1,3.58,8.6,6.41,12.59,4.25,5.37-2.91-.11-12.48,6.42-18.8,5.14-5,12.34-2.73,13.66-6.47s-5.86-6.17-10.19-16c-2.89-6.57-1.84-10.37-4.38-11.18C81.33,39.13,77,50,69.4,49.87c-8.14-.1-13-12.69-15.73-11.63-2.49.95,3.25,10.4-.51,21.78C50.77,67.22,46.57,69.17,47.67,74Z"/><path class="cls-5" d="M44.42,77.26C46.38,84,55.71,88.35,58,86.73s-3.11-8.23-.14-11.3c3.24-3.35,15-1,16.56,3.77s-7.86,9-6.18,13.72C69.7,97,78.57,99.75,83,97c5.93-3.64-1-14.27,6-21.89,5.53-6,13.93-3.86,15.18-8.22s-7.14-6.72-12.8-17.74c-3.77-7.36-2.83-11.77-5.8-12.54-5.1-1.32-9.29,11.34-18,11.68-9.33.36-15.73-13.77-18.83-12.39-2.78,1.24,4.46,11.71.95,25C47.5,69.29,42.83,71.77,44.42,77.26Z"/><path class="cls-6" d="M41.18,80.5c2.56,7.5,13.33,12,15.87,10.08s-3.95-9.16-.76-12.76c3.47-3.92,16.82-1.78,18.9,3.52s-8.4,10.47-6.25,15.77c1.83,4.5,12,7.25,16.84,4,6.51-4.38-1.9-16.08,5.63-25,5.92-7,15.52-5,16.69-10s-8.42-7.26-15.4-19.45c-4.65-8.14-3.83-13.16-7.22-13.9-5.83-1.27-9.88,13.22-19.69,14C55.27,47.62,47.29,32,43.87,33.64c-3.08,1.52,5.66,13,2.41,28.14C44.22,71.35,39.08,74.37,41.18,80.5Z"/><path class="cls-7" d="M37.93,83.74C41.11,92,53.31,96.67,56.07,94.42s-4.8-10.07-1.39-14.21c3.71-4.49,18.71-2.57,21.24,3.26s-8.93,12-6.3,17.83c2.23,5,13.69,7.66,19,3.85,7.07-5.12-2.8-17.87,5.23-28.09C100.12,69,110.92,71,112,65.35s-9.71-7.8-18-21.17c-5.54-8.91-4.83-14.55-8.65-15.25C78.81,27.72,74.89,44,64,45.24c-11.71,1.3-21.28-15.9-25-13.89-3.36,1.8,6.87,14.33,3.87,31.32C40.94,73.42,35.33,77,37.93,83.74Z"/><path class="cls-8" d="M34.68,87c3.79,9.07,17.44,13.86,20.41,11.3s-5.64-11-2-15.66c4-5.08,20.58-3.38,23.58,3s-9.47,13.49-6.37,19.87c2.63,5.42,15.39,8.08,21.08,3.73C99,103.35,87.68,89.54,96.21,78c6.7-9.07,18.7-7.24,19.73-13.46s-11-8.35-20.61-22.88C88.91,32,89.51,25.74,85.26,25.07,78,23.92,74.19,42.05,62.18,43.7c-12.89,1.76-24-17-28.12-14.65-3.66,2.09,8.07,15.65,5.33,34.5C37.66,75.49,31.58,79.56,34.68,87Z"/><path class="cls-9" d="M31.43,90.21c4.41,9.84,19.49,14.78,22.68,11.9S47.62,90.19,51.47,85c4.19-5.65,22.46-4.17,25.92,2.74s-10,15-6.43,21.93c3,5.87,17.09,8.5,23.21,3.59,8.21-6.59-4.59-21.47,4.43-34.29,7.1-10.08,20.3-8.36,21.26-15.19s-12.28-8.9-23.22-24.6c-7.3-10.48-6.82-17.34-11.48-18-8-1.09-11.67,18.86-24.79,20.94-14.07,2.24-26.81-18-31.21-15.4-4,2.38,9.27,17,6.79,37.69C34.38,77.56,27.83,82.16,31.43,90.21Z"/><path class="cls-10" d="M28.19,93.45c5,10.62,21.54,15.7,24.94,12.51S45.8,93.12,49.86,87.39c4.43-6.23,24.34-5,28.27,2.49s-10.54,16.51-6.5,24c3.44,6.33,18.79,8.92,25.33,3.47,8.79-7.33-5.48-23.27,4-37.39,7.49-11.11,21.89-9.49,22.77-16.94S110.22,53.54,98,36.67C89.77,25.42,90.14,18,85.05,17.34c-8.75-1-12.26,20.75-26.48,23.27C43.31,43.31,29,21.49,24.26,24.46,20,27.12,34.73,42.73,32.51,65.32,31.1,79.62,24.08,84.76,28.19,93.45Z"/><path class="cls-11" d="M56.76,39.07C40.31,42.23,24.41,18.88,19.35,22.16,14.81,25.11,31,41.75,29.07,66.21c-1.24,15.48-8.73,21.15-4.13,30.47,5.63,11.4,23.59,16.63,27.21,13.13S44,96,48.26,89.79C52.92,83,74.48,84,78.87,92s-11.08,18-6.56,26c3.83,6.79,20.49,9.34,27.45,3.33,9.36-8.07-6.38-25.06,3.64-40.48,7.89-12.13,23.48-10.62,24.29-18.69s-14.84-10-28.42-28c-9.06-12-8.82-20.12-14.33-20.69C75.46,12.51,72.09,36.11,56.76,39.07Z"/></g></svg>