<svg xmlns="http://www.w3.org/2000/svg" viewBox="0 0 146.27 130.86"><defs><style>.cls-1{fill:#706f6f;}</style></defs><g id="Camada_2" data-name="Camada 2"><path class="cls-1" d="M59.66,74.86a13.44,13.44,0,0,1-1.17-4.63c-.21-3.08-2-5.53-2.73-8.46-.94-4,2.3-6.65,5-8.89l1-1c.54-.38-.45-2.33.08-3C65,46,69.87,45.47,73.88,46.4a38.51,38.51,0,0,1,6.36,2.08.7.7,0,0,0,.73,0c.79-.4,2.67-2,3.31-1.39.34.38-.15,1.91-.81,3.4l6.47-7.19a7.85,7.85,0,0,1,.06-.92l.16-.19c-1.21.57-2.67,1.84-3.79,1.75-.94-.32-.65-3-1.22-3.94s-1.86-1.09-2.85-1.54c-5.41-1.78-11.43-.62-16.24,2a35.16,35.16,0,0,0-7.13,5.1c-.94.51-3-.27-3.6.64a10.48,10.48,0,0,0-2.1,3.59C52,53.87,52.11,57.61,51,61.52c-2.07,5.86-.8,10.83,4.3,14.54.52.42,1,.84,1.52,1.24l.75.59a1.54,1.54,0,0,1,.4.93v0c.9-1,1.8-2,2.69-3C60.13,75.75,59.92,75.31,59.66,74.86Z"/><path class="cls-1" d="M57.49,81.31,56.66,79a2.06,2.06,0,0,0-.07-.29l-.6-.4c-.31-.25-.64-.51-1-.78l-.57-.47c-5.37-3.91-7-9.45-4.7-16a37.66,37.66,0,0,0,1-5.24A37.23,37.23,0,0,1,52,49.42a12,12,0,0,1,2.37-4.07c.6-1,2-.92,3-.89a6.8,6.8,0,0,0,.91,0,36.48,36.48,0,0,1,7.19-5.11c5.64-3.11,11.95-3.88,17.28-2.12a6.81,6.81,0,0,0,.88.31,4.18,4.18,0,0,1,2.7,1.82,6.26,6.26,0,0,1,.56,2.25c0,.25.08.6.13.89a14,14,0,0,0,1.27-.71A12.71,12.71,0,0,1,89.6,41l5-2.35-3.34,4.23c0,.14,0,.28,0,.42v.49L79,57.4,82.28,50c.18-.4.32-.75.43-1.05l-.24.16a7.85,7.85,0,0,1-.91.56,2,2,0,0,1-2,0,39.65,39.65,0,0,0-6-1.91C70.41,46.93,66,47.07,63,49.6c0,.2.07.5.11.7.15.84.36,2-.59,2.65l-.79.84c-3.22,2.68-5.35,4.72-4.66,7.68a25.07,25.07,0,0,0,1.15,3.1,16.86,16.86,0,0,1,1.62,5.57,11.89,11.89,0,0,0,1,4.1l0,.1a2.72,2.72,0,0,0,.2.32l2.23.45L61.37,77ZM56.74,47a2,2,0,0,0-.5,0,10.22,10.22,0,0,0-1.78,3.15,35.2,35.2,0,0,0-1.17,6,38.07,38.07,0,0,1-1.06,5.68c-2,5.57-.71,9.84,3.81,13.13l.65.53.9.73.55.44.67-.74a3.29,3.29,0,0,1-.2-.34l-.1-.17a14.4,14.4,0,0,1-1.31-5.08,15,15,0,0,0-1.42-4.8A25.53,25.53,0,0,1,54.5,62.1c-1.13-4.79,2.64-7.91,5.39-10.19l.69-.7c0-.14-.06-.31-.08-.45a3.29,3.29,0,0,1,.28-2.68c4-3.6,9.47-3.85,13.39-2.95a39.9,39.9,0,0,1,6.39,2.08L81,46.9c1.17-.78,2.93-1.95,4.16-.74a1.5,1.5,0,0,1,.19.25l1.06-1.18h-.18L86,45.16c-1.32-.45-1.52-2-1.68-3.23a6.46,6.46,0,0,0-.24-1.3c-.16-.27-.5-.4-1.2-.62a9.48,9.48,0,0,1-1.06-.37c-4.53-1.49-10.07-.79-15.09,2a33.81,33.81,0,0,0-6.87,4.91l-.26.19a4.4,4.4,0,0,1-2.31.33ZM60.8,51l-.09.09Zm19.9-3.71,0,0Z"/><path class="cls-1" d="M90.64,58.08l-.18.4.15-.19c.8-.55,2-1,2.77-.35a9.89,9.89,0,0,1,3.85,5.63l.21,1c.73,1.91-.74,4-.89,5.73-.21.85.37,1.74.58,2.71a23.4,23.4,0,0,1,.4,3,8,8,0,0,1-2.17,5.58,17.75,17.75,0,0,1-16.09,5.86A16.78,16.78,0,0,1,71.52,84c-.8-.72-2.36-.33-3.38-.58a1,1,0,0,1-.2,0l-2.69,3c.43,1.32.62,3.07,1.91,3.81a24.23,24.23,0,0,0,19.27,3A23.61,23.61,0,0,0,100.22,83c2.39-4,6.35-7.8,6.65-12.71a13.52,13.52,0,0,0-2.12-5.42,46.92,46.92,0,0,0-5.31-9.29c-1.1-1.78-2.41-2.34-2.37-4.63Z"/><path class="cls-1" d="M80.27,95.25a25.39,25.39,0,0,1-13.83-4c-1.43-.81-1.86-2.42-2.2-3.71-.07-.27-.14-.54-.22-.78L63.79,86l3.68-4.09.73.15a5,5,0,0,0,1.23.11,4.33,4.33,0,0,1,3,.81,15.27,15.27,0,0,0,7.08,3.17A16.51,16.51,0,0,0,94.39,80.7a6.56,6.56,0,0,0,1.84-4.62,20.41,20.41,0,0,0-.38-2.85,6.29,6.29,0,0,0-.24-.78A4.22,4.22,0,0,1,95.29,70a9.2,9.2,0,0,1,.53-2A4.73,4.73,0,0,0,96.23,65L96,63.84A8.5,8.5,0,0,0,92.63,59c-.14-.12-.59-.08-1.13.25l-6.65,8.49,4.43-9.81.67.14-.51-.4.07-.09-.06,0,.22-.35,8.75-9.73,0,3.47a3.18,3.18,0,0,0,1,2.41,12.51,12.51,0,0,1,1.13,1.52,47.28,47.28,0,0,1,5.4,9.47,14.09,14.09,0,0,1,2.21,5.83c-.23,4.08-2.47,7.2-4.63,10.22-.77,1.09-1.54,2.16-2.19,3.25a24.91,24.91,0,0,1-14.6,10.76A25.25,25.25,0,0,1,80.27,95.25ZM66.7,86.64c0,.06,0,.12,0,.18.24.91.49,1.85,1,2.17a23,23,0,0,0,18.29,2.9,22.26,22.26,0,0,0,13-9.62c.65-1.1,1.46-2.24,2.28-3.38,2-2.72,4-5.53,4.15-8.7a12.33,12.33,0,0,0-1.88-4.57l-.14-.26a45.58,45.58,0,0,0-5.16-9,11,11,0,0,0-1-1.3,9.12,9.12,0,0,1-1-1.41l-2.7,3a3.31,3.31,0,0,1,.47.29,11.07,11.07,0,0,1,4.32,6.33l.22,1c.58,1.48,0,3.15-.43,4.49a8.57,8.57,0,0,0-.44,1.63,2.44,2.44,0,0,0,.22,1.2,9.15,9.15,0,0,1,.34,1.13,24.69,24.69,0,0,1,.43,3.2,9.1,9.1,0,0,1-2.47,6.49,19.14,19.14,0,0,1-17.31,6.31A17.9,17.9,0,0,1,70.71,85a2.9,2.9,0,0,0-1.31-.2c-.32,0-.65,0-1,0Z"/><path class="cls-1" d="M52.51,92.92c5-7.15,10.68-13.29,16.4-19.56a8.21,8.21,0,0,0,.83-.94c.09-.48-.45-1.52,0-1.72,6.4-5.76,12.19-11,17.56-17.91,4.89-7.45,11-14.58,14.92-22.53a2.6,2.6,0,1,1,4.61,2.39c-4.62,7.82-10,15.17-17,20.76-.59.55-2,2.11-2.61,2.72A124.46,124.46,0,0,0,72.67,73.35c-.14.43-1.23,0-1.7.16a7.35,7.35,0,0,0-.83.93c-5.19,6.27-10.3,13.32-13,20.88-1.43,3.6-6.74.91-4.61-2.4Z"/></g></svg>